<?xml version="1.0" standalone="no"?>
<!DOCTYPE svg PUBLIC "-//W3C//DTD SVG 20010904//EN"
 "http://www.w3.org/TR/2001/REC-SVG-20010904/DTD/svg10.dtd">
<svg version="1.0" xmlns="http://www.w3.org/2000/svg"
 width="279.000000pt" height="134.000000pt" viewBox="0 0 279.000000 134.000000"
 preserveAspectRatio="xMidYMid meet">

<g transform="translate(0.000000,134.000000) scale(0.100000,-0.100000)"
fill="#ffffff" stroke="none">
<path d="M227 1030 c-146 -37 -238 -164 -224 -311 15 -165 134 -238 362 -225
165 9 155 3 155 101 0 45 3 110 6 144 l7 61 -107 0 -106 0 0 -40 0 -40 48 0
48 0 -4 -62 c-2 -35 -7 -67 -12 -71 -4 -4 -38 -10 -76 -13 -59 -5 -75 -2 -113
18 -69 36 -86 66 -86 151 0 90 29 147 92 184 66 38 186 42 276 8 15 -6 17 -1
17 38 0 38 -3 46 -22 51 -40 12 -221 16 -261 6z"/>
<path d="M1250 903 c-8 -3 -27 -17 -42 -31 l-28 -26 0 27 c0 26 -2 27 -54 27
l-54 0 -6 -137 c-4 -76 -9 -166 -12 -200 l-6 -63 53 0 54 0 16 130 c12 98 21
138 36 158 25 33 58 39 85 15 20 -17 20 -25 15 -160 l-6 -143 54 0 55 0 0 73
c1 124 15 199 45 225 30 25 63 28 91 8 16 -13 19 -26 17 -98 -1 -46 -5 -111
-8 -145 l-7 -63 55 0 54 0 12 165 c12 151 11 168 -4 191 -20 31 -71 54 -120
54 -41 0 -110 -32 -119 -55 -4 -13 -11 -10 -34 16 -23 26 -37 32 -78 35 -27 2
-56 1 -64 -3z"/>
<path d="M658 713 c36 -104 66 -202 66 -219 0 -39 -38 -92 -71 -100 -14 -4
-41 -2 -60 4 l-35 11 7 -42 c4 -23 13 -45 19 -49 19 -13 105 -9 140 6 47 20
63 47 159 266 47 107 97 221 111 253 l26 57 -54 0 -55 0 -58 -150 -59 -149
-44 149 -44 150 -57 0 -58 0 67 -187z"/>
</g>
<g transform="translate(0.000000,134.000000) scale(0.100000,-0.100000)"
fill="#22DFF9" stroke="none">
<path d="M2675 1238 c-295 -263 -839 -799 -1105 -1088 -96 -105 -100 -110 -41
-60 142 121 540 501 776 742 231 235 462 478 454 478 -2 0 -40 -33 -84 -72z"/>
<path d="M2285 704 c-405 -401 -415 -411 -278 -300 78 64 145 116 147 116 3 0
53 -45 112 -100 l107 -100 81 0 c45 0 104 3 133 6 l52 7 -159 165 c-88 91
-160 169 -160 174 0 4 88 107 195 228 107 121 194 220 193 220 -2 -1 -192
-188 -423 -416z"/>
<path d="M2270 979 c-80 -65 -149 -119 -153 -119 -5 0 -55 43 -110 95 l-102
95 -139 0 -138 0 165 -173 165 -173 -176 -199 c-97 -110 -164 -190 -149 -178
26 20 792 774 785 772 -2 0 -68 -54 -148 -120z"/>
</g>
</svg>
